<svg width="49" height="44" viewBox="0 0 49 44" fill="none" xmlns="http://www.w3.org/2000/svg">
<path fill-rule="evenodd" clip-rule="evenodd" d="M27.3502 29.3571H22.8838V22.6523H27.3502C29.7626 22.6523 32.0763 23.611 33.7821 25.3175L41.4758 33.0138C41.9247 33.4629 42.5335 33.7152 43.1684 33.7152H48.4965V40.42H43.1684C40.756 40.42 38.4423 39.4613 36.7365 37.7548L29.0428 30.0585C28.5939 29.6094 27.985 29.3571 27.3502 29.3571Z" fill="#101010"/>
<path fill-rule="evenodd" clip-rule="evenodd" d="M21.6392 36.5888C29.8885 36.5888 36.576 29.899 36.576 21.6468C36.576 13.3945 29.8885 6.70476 21.6392 6.70476C13.3898 6.70476 6.7024 13.3945 6.7024 21.6468C6.7024 29.899 13.3898 36.5888 21.6392 36.5888ZM21.6392 43.2936C33.5902 43.2936 43.2784 33.602 43.2784 21.6468C43.2784 9.6916 33.5902 0 21.6392 0C9.68819 0 0 9.6916 0 21.6468C0 33.602 9.68819 43.2936 21.6392 43.2936Z" fill="#101010"/>
</svg>
